<svg width="26" height="26" viewBox="0 0 26 26" fill="none" xmlns="http://www.w3.org/2000/svg">
<path d="M16.25 13.5417C16.0404 13.543 15.8358 13.6052 15.6608 13.7205C15.4858 13.8359 15.348 13.9996 15.2642 14.1917C14.5809 13.77 13.7938 13.5466 12.9909 13.5462C12.188 13.5457 11.4007 13.7684 10.717 14.1894C10.0332 14.6103 9.47985 15.213 9.11864 15.9301C8.75743 16.6472 8.60256 17.4505 8.6713 18.2505C8.74005 19.0505 9.02972 19.8157 9.50799 20.4606C9.98625 21.1056 10.6343 21.605 11.3798 21.9031C12.1254 22.2012 12.9391 22.2863 13.7302 22.1489C14.5213 22.0115 15.2587 21.657 15.86 21.125C15.9739 21.0333 16.0681 20.9194 16.1368 20.7903C16.2055 20.6612 16.2474 20.5196 16.2599 20.3739C16.2723 20.2282 16.2552 20.0814 16.2095 19.9425C16.1637 19.8036 16.0904 19.6754 15.9938 19.5656C15.8971 19.4558 15.7793 19.3667 15.6473 19.3037C15.5154 19.2407 15.372 19.2051 15.2259 19.1989C15.0798 19.1928 14.934 19.2163 14.7972 19.268C14.6604 19.3198 14.5355 19.3987 14.43 19.5C14.035 19.8484 13.5267 20.0409 13 20.0417C12.6709 20.0364 12.3473 19.9561 12.0538 19.8071C11.7603 19.658 11.5047 19.444 11.3062 19.1814C11.1078 18.9188 10.9718 18.6144 10.9086 18.2913C10.8454 17.9683 10.8566 17.6351 10.9414 17.317C11.0262 16.999 11.1824 16.7044 11.3981 16.4557C11.6138 16.207 11.8833 16.0108 12.1861 15.8818C12.489 15.7528 12.8172 15.6946 13.146 15.7115C13.4747 15.7283 13.7953 15.8199 14.0834 15.9792H13.845C13.5577 15.9792 13.2822 16.0933 13.079 16.2965C12.8758 16.4996 12.7617 16.7752 12.7617 17.0625C12.7617 17.3498 12.8758 17.6254 13.079 17.8285C13.2822 18.0317 13.5577 18.1458 13.845 18.1458H16.25C16.5374 18.1458 16.8129 18.0317 17.0161 17.8285C17.2192 17.6254 17.3334 17.3498 17.3334 17.0625V14.625C17.3334 14.3377 17.2192 14.0621 17.0161 13.859C16.8129 13.6558 16.5374 13.5417 16.25 13.5417ZM19.955 8.36333C19.2931 6.84234 18.1507 5.58033 16.7029 4.7707C15.2552 3.96107 13.5818 3.64848 11.9394 3.88083C10.297 4.11318 8.77603 4.87766 7.60964 6.0571C6.44325 7.23655 5.69575 8.76591 5.4817 10.4108C4.5741 10.6319 3.76223 11.1403 3.1671 11.8603C2.57197 12.5803 2.22544 13.4734 2.17915 14.4064C2.13287 15.3394 2.38931 16.2623 2.91026 17.0377C3.43121 17.8131 4.18877 18.3994 5.07003 18.7092C5.18239 18.7438 5.29914 18.762 5.4167 18.7633C5.70402 18.8093 5.99783 18.7393 6.2335 18.5686C6.46917 18.3979 6.62739 18.1406 6.67337 17.8533C6.71934 17.566 6.64929 17.2722 6.47863 17.0365C6.30797 16.8009 6.05068 16.6426 5.76337 16.5967C5.35485 16.4492 5.00008 16.1824 4.74509 15.8308C4.4901 15.4792 4.34665 15.0591 4.33337 14.625C4.33337 14.0504 4.56164 13.4993 4.96797 13.0929C5.3743 12.6866 5.9254 12.4583 6.50003 12.4583C6.78735 12.4583 7.0629 12.3442 7.26606 12.141C7.46923 11.9379 7.58337 11.6623 7.58337 11.375C7.58613 10.0937 8.04301 8.8549 8.87282 7.87863C9.70264 6.90236 10.8517 6.25186 12.1158 6.04269C13.3799 5.83353 14.6772 6.07924 15.7772 6.73617C16.8773 7.39311 17.7089 8.41873 18.1242 9.63083C18.1861 9.81699 18.2974 9.98284 18.4463 10.1107C18.5951 10.2385 18.7758 10.3235 18.9692 10.3567C19.6206 10.4746 20.2206 10.7886 20.6886 11.2568C21.1567 11.725 21.4707 12.3249 21.5885 12.9764C21.7063 13.6278 21.6223 14.2998 21.3479 14.9022C21.0734 15.5047 20.6214 16.0089 20.0525 16.3475C19.8026 16.4912 19.6199 16.7282 19.5447 17.0066C19.4696 17.2849 19.508 17.5817 19.6517 17.8317C19.7954 18.0816 20.0324 18.2643 20.3108 18.3395C20.5891 18.4146 20.8859 18.3762 21.1359 18.2325C21.9573 17.7557 22.6389 17.0714 23.1123 16.2481C23.5858 15.4247 23.8344 14.4914 23.8334 13.5417C23.8301 12.3761 23.4509 11.2428 22.7522 10.3099C22.0535 9.37698 21.0726 8.69434 19.955 8.36333V8.36333Z" fill="#0E1109"/>
</svg>
