<svg width="40" height="40" viewBox="0 0 40 40" fill="none" xmlns="http://www.w3.org/2000/svg">
<path d="M16.6666 21.6667H4.99992C4.55789 21.6667 4.13397 21.8423 3.82141 22.1549C3.50885 22.4674 3.33325 22.8913 3.33325 23.3334V35C3.33325 35.4421 3.50885 35.866 3.82141 36.1786C4.13397 36.4911 4.55789 36.6667 4.99992 36.6667H16.6666C17.1086 36.6667 17.5325 36.4911 17.8451 36.1786C18.1577 35.866 18.3333 35.4421 18.3333 35V23.3334C18.3333 22.8913 18.1577 22.4674 17.8451 22.1549C17.5325 21.8423 17.1086 21.6667 16.6666 21.6667ZM14.9999 33.3334H6.66659V25H14.9999V33.3334ZM34.9999 3.33337H23.3333C22.8912 3.33337 22.4673 3.50897 22.1547 3.82153C21.8422 4.13409 21.6666 4.55801 21.6666 5.00004V16.6667C21.6666 17.1087 21.8422 17.5327 22.1547 17.8452C22.4673 18.1578 22.8912 18.3334 23.3333 18.3334H34.9999C35.4419 18.3334 35.8659 18.1578 36.1784 17.8452C36.491 17.5327 36.6666 17.1087 36.6666 16.6667V5.00004C36.6666 4.55801 36.491 4.13409 36.1784 3.82153C35.8659 3.50897 35.4419 3.33337 34.9999 3.33337V3.33337ZM33.3333 15H24.9999V6.66671H33.3333V15ZM34.9999 21.6667H23.3333C22.8912 21.6667 22.4673 21.8423 22.1547 22.1549C21.8422 22.4674 21.6666 22.8913 21.6666 23.3334V35C21.6666 35.4421 21.8422 35.866 22.1547 36.1786C22.4673 36.4911 22.8912 36.6667 23.3333 36.6667H34.9999C35.4419 36.6667 35.8659 36.4911 36.1784 36.1786C36.491 35.866 36.6666 35.4421 36.6666 35V23.3334C36.6666 22.8913 36.491 22.4674 36.1784 22.1549C35.8659 21.8423 35.4419 21.6667 34.9999 21.6667ZM33.3333 33.3334H24.9999V25H33.3333V33.3334ZM16.6666 3.33337H4.99992C4.55789 3.33337 4.13397 3.50897 3.82141 3.82153C3.50885 4.13409 3.33325 4.55801 3.33325 5.00004V16.6667C3.33325 17.1087 3.50885 17.5327 3.82141 17.8452C4.13397 18.1578 4.55789 18.3334 4.99992 18.3334H16.6666C17.1086 18.3334 17.5325 18.1578 17.8451 17.8452C18.1577 17.5327 18.3333 17.1087 18.3333 16.6667V5.00004C18.3333 4.55801 18.1577 4.13409 17.8451 3.82153C17.5325 3.50897 17.1086 3.33337 16.6666 3.33337V3.33337ZM14.9999 15H6.66659V6.66671H14.9999V15Z" fill="#1E4841"/>
</svg>
