<svg width="26" height="26" viewBox="0 0 26 26" fill="none" xmlns="http://www.w3.org/2000/svg">
<path d="M12.9999 13C12.3571 13 11.7288 13.1906 11.1943 13.5477C10.6599 13.9049 10.2433 14.4124 9.99731 15.0063C9.75133 15.6002 9.68696 16.2536 9.81237 16.8841C9.93777 17.5145 10.2473 18.0936 10.7018 18.5481C11.1563 19.0026 11.7354 19.3122 12.3659 19.4376C12.9963 19.563 13.6498 19.4986 14.2436 19.2526C14.8375 19.0066 15.3451 18.5901 15.7022 18.0556C16.0593 17.5212 16.2499 16.8928 16.2499 16.25C16.2499 15.3881 15.9075 14.5614 15.298 13.9519C14.6885 13.3424 13.8619 13 12.9999 13ZM12.9999 17.3334C12.7857 17.3334 12.5762 17.2698 12.3981 17.1508C12.2199 17.0317 12.081 16.8625 11.999 16.6646C11.9171 16.4666 11.8956 16.2488 11.9374 16.0387C11.9792 15.8285 12.0824 15.6355 12.2339 15.484C12.3854 15.3325 12.5784 15.2293 12.7886 15.1875C12.9987 15.1457 13.2165 15.1672 13.4145 15.2491C13.6124 15.3311 13.7816 15.47 13.9007 15.6482C14.0197 15.8263 14.0833 16.0358 14.0833 16.25C14.0833 16.5373 13.9691 16.8129 13.766 17.0161C13.5628 17.2192 13.2872 17.3334 12.9999 17.3334ZM12.2308 10.5192C12.3338 10.6178 12.4553 10.6951 12.5883 10.7467C12.7179 10.804 12.8581 10.8336 12.9999 10.8336C13.1417 10.8336 13.2819 10.804 13.4116 10.7467C13.5446 10.6951 13.6661 10.6178 13.7691 10.5192L16.2499 8.08169C16.4597 7.87194 16.5775 7.58747 16.5775 7.29085C16.5775 6.99423 16.4597 6.70976 16.2499 6.50002C16.0402 6.29028 15.7557 6.17245 15.4591 6.17245C15.1625 6.17245 14.878 6.29028 14.6683 6.50002L14.0833 7.13919V3.25002C14.0833 2.9627 13.9691 2.68715 13.766 2.48399C13.5628 2.28082 13.2872 2.16669 12.9999 2.16669C12.7126 2.16669 12.4371 2.28082 12.2339 2.48399C12.0307 2.68715 11.9166 2.9627 11.9166 3.25002V7.13919L11.3316 6.50002C11.1218 6.29028 10.8374 6.17245 10.5408 6.17245C10.2441 6.17245 9.95966 6.29028 9.74992 6.50002C9.54018 6.70976 9.42235 6.99423 9.42235 7.29085C9.42235 7.58747 9.54018 7.87194 9.74992 8.08169L12.2308 10.5192ZM20.5833 16.25C20.5833 16.0358 20.5197 15.8263 20.4007 15.6482C20.2816 15.47 20.1124 15.3311 19.9145 15.2491C19.7165 15.1672 19.4987 15.1457 19.2886 15.1875C19.0784 15.2293 18.8854 15.3325 18.7339 15.484C18.5824 15.6355 18.4792 15.8285 18.4374 16.0387C18.3956 16.2488 18.4171 16.4666 18.499 16.6646C18.581 16.8625 18.7199 17.0317 18.8981 17.1508C19.0762 17.2698 19.2857 17.3334 19.4999 17.3334C19.7872 17.3334 20.0628 17.2192 20.266 17.0161C20.4691 16.8129 20.5833 16.5373 20.5833 16.25ZM21.6666 8.66669H18.4166C18.1293 8.66669 17.8537 8.78082 17.6506 8.98399C17.4474 9.18715 17.3333 9.4627 17.3333 9.75002C17.3333 10.0373 17.4474 10.3129 17.6506 10.5161C17.8537 10.7192 18.1293 10.8334 18.4166 10.8334H21.6666C21.9539 10.8334 22.2295 10.9475 22.4326 11.1507C22.6358 11.3538 22.7499 11.6294 22.7499 11.9167V20.5834C22.7499 20.8707 22.6358 21.1462 22.4326 21.3494C22.2295 21.5525 21.9539 21.6667 21.6666 21.6667H4.33325C4.04593 21.6667 3.77038 21.5525 3.56722 21.3494C3.36406 21.1462 3.24992 20.8707 3.24992 20.5834V11.9167C3.24992 11.6294 3.36406 11.3538 3.56722 11.1507C3.77038 10.9475 4.04593 10.8334 4.33325 10.8334H7.58325C7.87057 10.8334 8.14612 10.7192 8.34928 10.5161C8.55245 10.3129 8.66659 10.0373 8.66659 9.75002C8.66659 9.4627 8.55245 9.18715 8.34928 8.98399C8.14612 8.78082 7.87057 8.66669 7.58325 8.66669H4.33325C3.4713 8.66669 2.64465 9.0091 2.03515 9.61859C1.42566 10.2281 1.08325 11.0547 1.08325 11.9167V20.5834C1.08325 21.4453 1.42566 22.272 2.03515 22.8814C2.64465 23.4909 3.4713 23.8334 4.33325 23.8334H21.6666C22.5285 23.8334 23.3552 23.4909 23.9647 22.8814C24.5742 22.272 24.9166 21.4453 24.9166 20.5834V11.9167C24.9166 11.0547 24.5742 10.2281 23.9647 9.61859C23.3552 9.0091 22.5285 8.66669 21.6666 8.66669ZM5.41659 16.25C5.41659 16.4643 5.48012 16.6737 5.59916 16.8519C5.7182 17.03 5.88739 17.1689 6.08535 17.2509C6.2833 17.3329 6.50112 17.3543 6.71127 17.3125C6.92141 17.2707 7.11444 17.1676 7.26595 17.0161C7.41746 16.8645 7.52064 16.6715 7.56244 16.4614C7.60424 16.2512 7.58278 16.0334 7.50079 15.8354C7.41879 15.6375 7.27994 15.4683 7.10179 15.3493C6.92363 15.2302 6.71418 15.1667 6.49992 15.1667C6.2126 15.1667 5.93705 15.2808 5.73389 15.484C5.53072 15.6872 5.41659 15.9627 5.41659 16.25Z" fill="#0E1109"/>
</svg>
