<svg width="20" height="20" viewBox="0 0 20 20" fill="none" xmlns="http://www.w3.org/2000/svg">
<path d="M9.16663 10.8333C9.00181 10.8333 8.84069 10.8821 8.70365 10.9737C8.56661 11.0653 8.4598 11.1954 8.39673 11.3477C8.33365 11.5 8.31715 11.6675 8.3493 11.8292C8.38146 11.9908 8.46083 12.1393 8.57737 12.2558C8.69391 12.3724 8.8424 12.4518 9.00405 12.4839C9.1657 12.5161 9.33326 12.4996 9.48553 12.4365C9.6378 12.3734 9.76795 12.2666 9.85952 12.1296C9.95108 11.9925 9.99996 11.8314 9.99996 11.6666C9.99996 11.4456 9.91216 11.2336 9.75588 11.0773C9.5996 10.921 9.38764 10.8333 9.16663 10.8333ZM5.83329 10.8333C5.66847 10.8333 5.50736 10.8821 5.37032 10.9737C5.23328 11.0653 5.12647 11.1954 5.06339 11.3477C5.00032 11.5 4.98382 11.6675 5.01597 11.8292C5.04813 11.9908 5.12749 12.1393 5.24404 12.2558C5.36058 12.3724 5.50907 12.4518 5.67072 12.4839C5.83237 12.5161 5.99992 12.4996 6.1522 12.4365C6.30447 12.3734 6.43462 12.2666 6.52618 12.1296C6.61775 11.9925 6.66663 11.8314 6.66663 11.6666C6.66663 11.4456 6.57883 11.2336 6.42255 11.0773C6.26627 10.921 6.05431 10.8333 5.83329 10.8333ZM18.3333 3.33325C18.3333 2.67021 18.0699 2.03433 17.6011 1.56549C17.1322 1.09664 16.4963 0.833252 15.8333 0.833252H4.16663C3.50358 0.833252 2.8677 1.09664 2.39886 1.56549C1.93002 2.03433 1.66663 2.67021 1.66663 3.33325V6.66659C1.6703 7.2833 1.9018 7.87689 2.31663 8.33325C1.9018 8.78962 1.6703 9.38321 1.66663 9.99992V13.3333C1.66663 13.9963 1.93002 14.6322 2.39886 15.101C2.8677 15.5699 3.50358 15.8333 4.16663 15.8333H9.16663V17.4999H2.49996C2.27895 17.4999 2.06698 17.5877 1.9107 17.744C1.75442 17.9003 1.66663 18.1122 1.66663 18.3333C1.66663 18.5543 1.75442 18.7662 1.9107 18.9225C2.06698 19.0788 2.27895 19.1666 2.49996 19.1666H17.5C17.721 19.1666 17.9329 19.0788 18.0892 18.9225C18.2455 18.7662 18.3333 18.5543 18.3333 18.3333C18.3333 18.1122 18.2455 17.9003 18.0892 17.744C17.9329 17.5877 17.721 17.4999 17.5 17.4999H10.8333V15.8333H15.8333C16.4963 15.8333 17.1322 15.5699 17.6011 15.101C18.0699 14.6322 18.3333 13.9963 18.3333 13.3333V9.99992C18.3296 9.38321 18.0981 8.78962 17.6833 8.33325C18.0981 7.87689 18.3296 7.2833 18.3333 6.66659V3.33325ZM16.6666 13.3333C16.6666 13.5543 16.5788 13.7662 16.4225 13.9225C16.2663 14.0788 16.0543 14.1666 15.8333 14.1666H4.16663C3.94561 14.1666 3.73365 14.0788 3.57737 13.9225C3.42109 13.7662 3.33329 13.5543 3.33329 13.3333V9.99992C3.33329 9.77891 3.42109 9.56694 3.57737 9.41066C3.73365 9.25438 3.94561 9.16659 4.16663 9.16659H15.8333C16.0543 9.16659 16.2663 9.25438 16.4225 9.41066C16.5788 9.56694 16.6666 9.77891 16.6666 9.99992V13.3333ZM16.6666 6.66659C16.6666 6.8876 16.5788 7.09956 16.4225 7.25584C16.2663 7.41212 16.0543 7.49992 15.8333 7.49992H4.16663C3.94561 7.49992 3.73365 7.41212 3.57737 7.25584C3.42109 7.09956 3.33329 6.8876 3.33329 6.66659V3.33325C3.33329 3.11224 3.42109 2.90028 3.57737 2.744C3.73365 2.58772 3.94561 2.49992 4.16663 2.49992H15.8333C16.0543 2.49992 16.2663 2.58772 16.4225 2.744C16.5788 2.90028 16.6666 3.11224 16.6666 3.33325V6.66659ZM9.16663 4.16659C9.00181 4.16659 8.84069 4.21546 8.70365 4.30703C8.56661 4.3986 8.4598 4.52874 8.39673 4.68102C8.33365 4.83329 8.31715 5.00084 8.3493 5.16249C8.38146 5.32414 8.46083 5.47263 8.57737 5.58917C8.69391 5.70572 8.8424 5.78509 9.00405 5.81724C9.1657 5.84939 9.33326 5.83289 9.48553 5.76982C9.6378 5.70675 9.76795 5.59993 9.85952 5.46289C9.95108 5.32585 9.99996 5.16474 9.99996 4.99992C9.99996 4.77891 9.91216 4.56694 9.75588 4.41066C9.5996 4.25438 9.38764 4.16659 9.16663 4.16659ZM5.83329 4.16659C5.66847 4.16659 5.50736 4.21546 5.37032 4.30703C5.23328 4.3986 5.12647 4.52874 5.06339 4.68102C5.00032 4.83329 4.98382 5.00084 5.01597 5.16249C5.04813 5.32414 5.12749 5.47263 5.24404 5.58917C5.36058 5.70572 5.50907 5.78509 5.67072 5.81724C5.83237 5.84939 5.99992 5.83289 6.1522 5.76982C6.30447 5.70675 6.43462 5.59993 6.52618 5.46289C6.61775 5.32585 6.66663 5.16474 6.66663 4.99992C6.66663 4.77891 6.57883 4.56694 6.42255 4.41066C6.26627 4.25438 6.05431 4.16659 5.83329 4.16659Z" fill="#1E4841"/>
</svg>
