<svg width="40" height="40" viewBox="0 0 40 40" fill="none" xmlns="http://www.w3.org/2000/svg">
<path d="M18.3335 21.6666C18.0039 21.6666 17.6816 21.7644 17.4075 21.9475C17.1335 22.1306 16.9198 22.3909 16.7937 22.6955C16.6676 23 16.6345 23.3351 16.6989 23.6584C16.7632 23.9817 16.9219 24.2787 17.155 24.5118C17.3881 24.7449 17.685 24.9036 18.0083 24.9679C18.3316 25.0322 18.6668 24.9992 18.9713 24.8731C19.2758 24.7469 19.5361 24.5333 19.7193 24.2592C19.9024 23.9852 20.0002 23.6629 20.0002 23.3333C20.0002 22.8913 19.8246 22.4673 19.512 22.1548C19.1994 21.8422 18.7755 21.6666 18.3335 21.6666ZM11.6668 21.6666C11.3372 21.6666 11.015 21.7644 10.7409 21.9475C10.4668 22.1306 10.2532 22.3909 10.127 22.6955C10.0009 23 9.96788 23.3351 10.0322 23.6584C10.0965 23.9817 10.2552 24.2787 10.4883 24.5118C10.7214 24.7449 11.0184 24.9036 11.3417 24.9679C11.665 25.0322 12.0001 24.9992 12.3046 24.8731C12.6092 24.7469 12.8695 24.5333 13.0526 24.2592C13.2357 23.9852 13.3335 23.6629 13.3335 23.3333C13.3335 22.8913 13.1579 22.4673 12.8453 22.1548C12.5328 21.8422 12.1089 21.6666 11.6668 21.6666ZM36.6668 6.66663C36.6668 5.34054 36.14 4.06877 35.2024 3.13109C34.2647 2.19341 32.9929 1.66663 31.6668 1.66663H8.3335C7.00741 1.66663 5.73564 2.19341 4.79796 3.13109C3.86028 4.06877 3.3335 5.34054 3.3335 6.66663V13.3333C3.34085 14.5667 3.80385 15.7539 4.6335 16.6666C3.80385 17.5794 3.34085 18.7665 3.3335 20V26.6666C3.3335 27.9927 3.86028 29.2645 4.79796 30.2022C5.73564 31.1398 7.00741 31.6666 8.3335 31.6666H18.3335V35H5.00016C4.55814 35 4.13421 35.1755 3.82165 35.4881C3.50909 35.8007 3.3335 36.2246 3.3335 36.6666C3.3335 37.1087 3.50909 37.5326 3.82165 37.8451C4.13421 38.1577 4.55814 38.3333 5.00016 38.3333H35.0002C35.4422 38.3333 35.8661 38.1577 36.1787 37.8451C36.4912 37.5326 36.6668 37.1087 36.6668 36.6666C36.6668 36.2246 36.4912 35.8007 36.1787 35.4881C35.8661 35.1755 35.4422 35 35.0002 35H21.6668V31.6666H31.6668C32.9929 31.6666 34.2647 31.1398 35.2024 30.2022C36.14 29.2645 36.6668 27.9927 36.6668 26.6666V20C36.6595 18.7665 36.1965 17.5794 35.3668 16.6666C36.1965 15.7539 36.6595 14.5667 36.6668 13.3333V6.66663ZM33.3335 26.6666C33.3335 27.1087 33.1579 27.5326 32.8453 27.8451C32.5328 28.1577 32.1089 28.3333 31.6668 28.3333H8.3335C7.89147 28.3333 7.46755 28.1577 7.15499 27.8451C6.84242 27.5326 6.66683 27.1087 6.66683 26.6666V20C6.66683 19.5579 6.84242 19.134 7.15499 18.8214C7.46755 18.5089 7.89147 18.3333 8.3335 18.3333H31.6668C32.1089 18.3333 32.5328 18.5089 32.8453 18.8214C33.1579 19.134 33.3335 19.5579 33.3335 20V26.6666ZM33.3335 13.3333C33.3335 13.7753 33.1579 14.1992 32.8453 14.5118C32.5328 14.8244 32.1089 15 31.6668 15H8.3335C7.89147 15 7.46755 14.8244 7.15499 14.5118C6.84242 14.1992 6.66683 13.7753 6.66683 13.3333V6.66663C6.66683 6.2246 6.84242 5.80067 7.15499 5.48811C7.46755 5.17555 7.89147 4.99996 8.3335 4.99996H31.6668C32.1089 4.99996 32.5328 5.17555 32.8453 5.48811C33.1579 5.80067 33.3335 6.2246 33.3335 6.66663V13.3333ZM18.3335 8.33329C18.0039 8.33329 17.6816 8.43104 17.4075 8.61418C17.1335 8.79731 16.9198 9.05761 16.7937 9.36215C16.6676 9.6667 16.6345 10.0018 16.6989 10.3251C16.7632 10.6484 16.9219 10.9454 17.155 11.1785C17.3881 11.4116 17.685 11.5703 18.0083 11.6346C18.3316 11.6989 18.6668 11.6659 18.9713 11.5398C19.2758 11.4136 19.5361 11.2 19.7193 10.9259C19.9024 10.6518 20.0002 10.3296 20.0002 9.99996C20.0002 9.55793 19.8246 9.13401 19.512 8.82145C19.1994 8.50889 18.7755 8.33329 18.3335 8.33329ZM11.6668 8.33329C11.3372 8.33329 11.015 8.43104 10.7409 8.61418C10.4668 8.79731 10.2532 9.05761 10.127 9.36215C10.0009 9.6667 9.96788 10.0018 10.0322 10.3251C10.0965 10.6484 10.2552 10.9454 10.4883 11.1785C10.7214 11.4116 11.0184 11.5703 11.3417 11.6346C11.665 11.6989 12.0001 11.6659 12.3046 11.5398C12.6092 11.4136 12.8695 11.2 13.0526 10.9259C13.2357 10.6518 13.3335 10.3296 13.3335 9.99996C13.3335 9.55793 13.1579 9.13401 12.8453 8.82145C12.5328 8.50889 12.1089 8.33329 11.6668 8.33329Z" fill="#1E4841"/>
</svg>
