<svg width="20" height="20" viewBox="0 0 20 20" fill="none" xmlns="http://www.w3.org/2000/svg">
<path d="M10.25 10.1833C10.6947 9.7984 11.0513 9.32236 11.2958 8.78748C11.5402 8.25259 11.6667 7.67138 11.6667 7.08329C11.6667 5.97822 11.2277 4.91842 10.4463 4.13701C9.66492 3.35561 8.60511 2.91663 7.50004 2.91663C6.39497 2.91663 5.33516 3.35561 4.55376 4.13701C3.77236 4.91842 3.33337 5.97822 3.33337 7.08329C3.33337 7.67138 3.45988 8.25259 3.70431 8.78748C3.94875 9.32236 4.30539 9.7984 4.75004 10.1833C3.58349 10.7115 2.59376 11.5646 1.89919 12.6404C1.20462 13.7163 0.834601 14.9694 0.833374 16.25C0.833374 16.471 0.921171 16.6829 1.07745 16.8392C1.23373 16.9955 1.44569 17.0833 1.66671 17.0833C1.88772 17.0833 2.09968 16.9955 2.25596 16.8392C2.41224 16.6829 2.50004 16.471 2.50004 16.25C2.50004 14.9239 3.02682 13.6521 3.96451 12.7144C4.90219 11.7767 6.17396 11.25 7.50004 11.25C8.82612 11.25 10.0979 11.7767 11.0356 12.7144C11.9733 13.6521 12.5 14.9239 12.5 16.25C12.5 16.471 12.5878 16.6829 12.7441 16.8392C12.9004 16.9955 13.1124 17.0833 13.3334 17.0833C13.5544 17.0833 13.7663 16.9955 13.9226 16.8392C14.0789 16.6829 14.1667 16.471 14.1667 16.25C14.1655 14.9694 13.7955 13.7163 13.1009 12.6404C12.4063 11.5646 11.4166 10.7115 10.25 10.1833V10.1833ZM7.50004 9.58329C7.00559 9.58329 6.52224 9.43667 6.11111 9.16197C5.69999 8.88726 5.37956 8.49682 5.19034 8.04C5.00112 7.58319 4.95161 7.08052 5.04808 6.59557C5.14454 6.11061 5.38264 5.66516 5.73227 5.31553C6.0819 4.96589 6.52736 4.72779 7.01231 4.63133C7.49727 4.53487 7.99993 4.58438 8.45675 4.77359C8.91356 4.96281 9.30401 5.28324 9.57871 5.69437C9.85342 6.10549 10 6.58884 10 7.08329C10 7.74633 9.73665 8.38222 9.26781 8.85106C8.79897 9.3199 8.16308 9.58329 7.50004 9.58329ZM15.6167 9.84996C16.15 9.2494 16.4984 8.50751 16.6199 7.71358C16.7414 6.91965 16.6308 6.10752 16.3015 5.37496C15.9722 4.6424 15.4382 4.02062 14.7638 3.58448C14.0893 3.14833 13.3032 2.91641 12.5 2.91663C12.279 2.91663 12.0671 3.00442 11.9108 3.1607C11.7545 3.31698 11.6667 3.52895 11.6667 3.74996C11.6667 3.97097 11.7545 4.18293 11.9108 4.33922C12.0671 4.4955 12.279 4.58329 12.5 4.58329C13.1631 4.58329 13.799 4.84669 14.2678 5.31553C14.7366 5.78437 15 6.42025 15 7.08329C14.9989 7.52099 14.8828 7.95071 14.6634 8.32948C14.4441 8.70824 14.1291 9.02278 13.75 9.24163C13.6265 9.31289 13.5233 9.41468 13.4503 9.53724C13.3774 9.65981 13.3371 9.79904 13.3334 9.94163C13.3299 10.0831 13.3625 10.2231 13.4281 10.3485C13.4937 10.4739 13.5902 10.5805 13.7084 10.6583L14.0334 10.875L14.1417 10.9333C15.1462 11.4097 15.9936 12.1633 16.5842 13.1052C17.1747 14.0472 17.4838 15.1382 17.475 16.25C17.475 16.471 17.5628 16.6829 17.7191 16.8392C17.8754 16.9955 18.0874 17.0833 18.3084 17.0833C18.5294 17.0833 18.7413 16.9955 18.8976 16.8392C19.0539 16.6829 19.1417 16.471 19.1417 16.25C19.1485 14.9712 18.8282 13.7118 18.2113 12.5917C17.5943 11.4715 16.7012 10.5277 15.6167 9.84996V9.84996Z" fill="#1E4841"/>
</svg>
