<svg width="27" height="34" viewBox="0 0 27 34" fill="none" xmlns="http://www.w3.org/2000/svg">
<path d="M6.66667 24.1667C6.33703 24.1667 6.0148 24.2644 5.74072 24.4475C5.46663 24.6307 5.25301 24.891 5.12687 25.1955C5.00072 25.5001 4.96772 25.8352 5.03202 26.1585C5.09633 26.4818 5.25507 26.7788 5.48816 27.0118C5.72124 27.2449 6.01821 27.4037 6.34152 27.468C6.66482 27.5323 6.99993 27.4993 7.30447 27.3731C7.60902 27.247 7.86931 27.0334 8.05245 26.7593C8.23558 26.4852 8.33333 26.163 8.33333 25.8333C8.33333 25.3913 8.15774 24.9674 7.84518 24.6548C7.53262 24.3423 7.10869 24.1667 6.66667 24.1667V24.1667ZM13.3333 0C6.66667 0 0 2.28333 0 6.66667V26.6667C0 31.05 6.66667 33.3333 13.3333 33.3333C20 33.3333 26.6667 31.05 26.6667 26.6667V6.66667C26.6667 2.28333 20 0 13.3333 0ZM23.3333 26.6667C23.3333 27.85 19.5333 30 13.3333 30C7.13333 30 3.33333 27.85 3.33333 26.6667V21.2167C6.45345 22.6999 9.87982 23.4252 13.3333 23.3333C16.7868 23.4252 20.2132 22.6999 23.3333 21.2167V26.6667ZM23.3333 16.6667C23.3333 17.85 19.5333 20 13.3333 20C7.13333 20 3.33333 17.85 3.33333 16.6667V11.2167C6.45345 12.6999 9.87982 13.4252 13.3333 13.3333C16.7868 13.4252 20.2132 12.6999 23.3333 11.2167V16.6667ZM13.3333 10C7.13333 10 3.33333 7.85 3.33333 6.66667C3.33333 5.48333 7.13333 3.33333 13.3333 3.33333C19.5333 3.33333 23.3333 5.48333 23.3333 6.66667C23.3333 7.85 19.5333 10 13.3333 10ZM6.66667 14.1667C6.33703 14.1667 6.0148 14.2644 5.74072 14.4476C5.46663 14.6307 5.25301 14.891 5.12687 15.1955C5.00072 15.5001 4.96772 15.8352 5.03202 16.1585C5.09633 16.4818 5.25507 16.7788 5.48816 17.0118C5.72124 17.2449 6.01821 17.4037 6.34152 17.468C6.66482 17.5323 6.99993 17.4993 7.30447 17.3731C7.60902 17.247 7.86931 17.0334 8.05245 16.7593C8.23558 16.4852 8.33333 16.163 8.33333 15.8333C8.33333 15.3913 8.15774 14.9674 7.84518 14.6548C7.53262 14.3423 7.10869 14.1667 6.66667 14.1667V14.1667Z" fill="#1E4841"/>
</svg>
