<svg width="17" height="17" viewBox="0 0 17 17" fill="none" xmlns="http://www.w3.org/2000/svg">
<path d="M12.5 16.6005H2.5C1.83696 16.6005 1.20107 16.3371 0.732233 15.8683C0.263392 15.3994 0 14.7636 0 14.1005V5.76718C0 5.10414 0.263392 4.46826 0.732233 3.99942C1.20107 3.53058 1.83696 3.26718 2.5 3.26718H3.33333C3.34735 2.56105 3.58529 1.87762 4.01284 1.31546C4.4404 0.753299 5.03546 0.341473 5.7122 0.139378C6.38894 -0.062718 7.11239 -0.0446368 7.77819 0.191013C8.44399 0.426663 9.01773 0.867702 9.41667 1.45052C9.79037 1.98314 9.99376 2.61657 10 3.26718H12.5C12.721 3.26718 12.933 3.35498 13.0893 3.51126C13.2455 3.66754 13.3333 3.8795 13.3333 4.10052V6.60052C14.0395 6.61453 14.7229 6.85248 15.2851 7.28003C15.8472 7.70758 16.259 8.30264 16.4611 8.97938C16.6632 9.65612 16.6452 10.3796 16.4095 11.0454C16.1739 11.7112 15.7328 12.2849 15.15 12.6838C14.6174 13.0576 13.9839 13.2609 13.3333 13.2672V13.2672V15.7672C13.3333 15.9882 13.2455 16.2002 13.0893 16.3564C12.933 16.5127 12.721 16.6005 12.5 16.6005ZM2.5 4.93385C2.27899 4.93385 2.06702 5.02165 1.91074 5.17793C1.75446 5.33421 1.66667 5.54617 1.66667 5.76718V14.1005C1.66667 14.3215 1.75446 14.5335 1.91074 14.6898C2.06702 14.8461 2.27899 14.9339 2.5 14.9339H11.6667V12.2839C11.6659 12.1502 11.6974 12.0184 11.7583 11.8995C11.8192 11.7805 11.9078 11.678 12.0167 11.6005C12.1252 11.5231 12.2507 11.4729 12.3826 11.4541C12.5146 11.4352 12.6491 11.4483 12.775 11.4922C13.0125 11.5891 13.2711 11.6223 13.5254 11.5887C13.7797 11.5551 14.0208 11.4558 14.225 11.3005C14.4282 11.1766 14.6025 11.0106 14.7362 10.8137C14.8699 10.6167 14.9598 10.3935 15 10.1589C15.0321 9.92223 15.0131 9.68147 14.944 9.45287C14.875 9.22426 14.7577 9.01316 14.6 8.83385C14.3867 8.57478 14.0963 8.3906 13.771 8.30815C13.4457 8.22571 13.1026 8.24931 12.7917 8.37552C12.6658 8.41942 12.5313 8.4325 12.3993 8.41365C12.2674 8.3948 12.1419 8.34457 12.0333 8.26718C11.9245 8.18969 11.8359 8.08715 11.775 7.96822C11.714 7.8493 11.6826 7.71747 11.6833 7.58385V4.93385H9.01667C8.87971 4.94161 8.74295 4.91544 8.61854 4.85767C8.49412 4.79989 8.38589 4.7123 8.30345 4.60265C8.22101 4.49301 8.16692 4.36471 8.14596 4.22914C8.12501 4.09358 8.13785 3.95493 8.18333 3.82552C8.28022 3.58802 8.3135 3.32937 8.27988 3.07509C8.24627 2.8208 8.14693 2.57968 7.99167 2.37552C7.86863 2.16649 7.70013 1.98782 7.49866 1.85276C7.29719 1.7177 7.06792 1.6297 6.82782 1.59529C6.58772 1.56087 6.34296 1.58092 6.11166 1.65396C5.88037 1.72699 5.66847 1.85113 5.49167 2.01718C5.32748 2.18003 5.19898 2.37526 5.11433 2.59046C5.02969 2.80566 4.99075 3.03612 5 3.26718C5.00193 3.45833 5.03864 3.64752 5.10833 3.82552C5.15239 3.95153 5.16553 4.08629 5.14664 4.21844C5.12775 4.35059 5.07739 4.47627 4.9998 4.5849C4.92221 4.69353 4.81965 4.78192 4.70077 4.84265C4.58189 4.90338 4.45016 4.93465 4.31667 4.93385H2.5Z" fill="#1E4841"/>
</svg>
